<svg width="148" height="147" viewBox="0 0 148 147" fill="none" xmlns="http://www.w3.org/2000/svg">
<path d="M77.0165 86.002C76.3309 80.4166 79.5201 76.9281 83.6814 74.1324C86.1131 72.4987 86.6295 70.9249 85.7601 67.9339C83.3728 59.7213 80.1017 52.0836 74.2123 45.0254C68.5462 50.9949 65.8218 57.9751 63.1572 65.084C61.5037 69.4952 61.582 72.7112 66.0715 75.4044C69.6665 77.561 71.5218 81.1451 71.4247 85.4983C71.0178 103.749 70.5984 121.999 69.8277 140.63C69.0802 140.935 68.6884 140.859 68.2966 140.784C68.2423 139.774 68.1879 138.764 68.2894 137.086C68.1967 134.492 67.9481 132.566 67.6995 130.641C67.3102 128.149 66.9209 125.656 66.5971 122.442C66.3494 120.693 66.0362 119.667 65.723 118.641C64.4562 113.648 63.072 108.681 61.9439 103.657C58.0931 86.5056 47.5197 73.9727 34.3658 63.1797C33.731 62.6588 33.1075 62.1232 32.5005 61.5707C32.4124 61.4904 32.4463 61.276 32.213 59.7002C36.8573 59.2573 41.5075 58.2459 46.0927 58.4843C59.2191 59.1667 69.019 49.3825 68.4615 35.6179C61.8931 37.9025 62.0687 37.6366 55.5548 33.3355C53.4105 31.9197 49.4745 31.0402 47.4515 32.068C43.1536 34.2516 39.1915 37.4792 35.8151 40.9771C32.9023 43.9947 30.991 47.979 28.5167 51.7175C24.5447 41.5747 20.5763 31.4411 16.4062 20.7929C20.1544 23.1276 23.7772 25.3843 27.989 28.0078C37.9386 9.66588 52.7898 -0.00413644 73.9892 0.0151656C95.1319 0.0344146 110.148 9.39661 120.232 28.1968C124.356 25.27 127.939 22.7273 132.034 19.8213C127.684 31.0947 123.562 41.7766 119.551 52.1735C117.353 48.7023 114.951 44.2069 111.854 40.2575C109.662 37.4619 106.77 35.0224 103.754 33.1119C99.6899 30.5368 95.3092 29.964 91.5394 34.0419C88.0906 37.7725 84.4472 39.7614 80.189 34.6699C77.7994 45.6505 88.524 58.8853 98.6939 58.6445C102.835 58.5465 106.996 58.6028 111.123 58.9153C112.786 59.0412 114.383 60.0422 116.615 60.8693C104.555 70.7547 94.0516 80.8342 88.5549 95.5565C88.0464 96.6083 87.9464 97.2944 87.8464 97.9805C87.2341 100.059 86.6217 102.137 85.5942 104.631C85.0226 106.018 84.8661 106.99 84.7097 107.961C84.3128 109.988 83.9158 112.015 83.1699 114.506C82.8471 115.642 82.8732 116.315 82.8992 116.988C82.8542 117.404 82.8092 117.82 82.3434 118.712C81.8318 120.301 81.741 121.414 81.6502 122.528C81.3312 124.69 81.0122 126.851 80.3014 129.616C79.2168 132.813 78.5239 135.406 77.8311 137.999C77.5809 134.95 77.3307 131.902 77.2631 128.058C77.5463 118.124 77.7414 108.984 77.7079 99.8447C77.691 95.2297 77.2602 90.6162 77.0165 86.002Z" fill="white"/>
<path d="M38.6957 76.3032C51.1866 89.7369 57.9433 109.195 53.4843 123.085C52.0213 110.342 48.3244 98.9343 40.4838 89.209C38.3038 86.505 36.2153 83.2165 33.302 81.7148C26.0013 77.9517 23.6967 70.779 20.0292 64.4797C19.8343 64.145 20.0639 63.5631 20.2068 61.4756C26.8021 66.7489 32.6227 71.4028 38.6957 76.3032Z" fill="white"/>
<path d="M93.5651 116.872C92.7982 98.168 101.003 83.5959 114.633 71.6403C118.301 68.4232 122.402 65.7001 126.303 62.7502C126.863 63.1392 127.422 63.5282 127.982 63.9172C125.326 68.4969 123.697 74.3931 119.826 77.4165C106.739 87.6363 98.4217 100.29 95.3871 116.917C94.5023 117.06 94.0337 116.966 93.5651 116.872Z" fill="white"/>
<path d="M122.193 95.8361C117.703 100.289 113.47 104.464 110.365 107.526C108.614 99.7713 114.585 93.5332 119.961 87.0146C120.473 87.0754 120.984 87.1361 121.495 87.1968C121.813 89.9837 122.132 92.7707 122.193 95.8361Z" fill="white"/>
<path d="M35.814 98.2825C36.5759 100.955 37.1924 103.269 38.1087 106.707C36.3891 105.776 35.3672 105.504 34.7705 104.847C33.0024 102.899 31.8026 100.052 29.6589 98.9015C23.8538 95.7849 25.3612 91.7522 27.7572 85.5903C30.8388 90.394 33.2537 94.1585 35.814 98.2825Z" fill="white"/>
<path d="M77.6914 138.29C78.5245 135.406 79.2174 132.813 80.2067 130.019C80.3191 134.673 80.135 139.528 80.0123 144.843C79.2328 143.064 78.392 140.822 77.6914 138.29Z" fill="white"/>
<path d="M95.0502 120.999C95.1751 122.307 95.2999 123.614 95.4248 124.922C94.9507 125.005 94.4766 125.088 94.0025 125.172C93.7265 123.932 93.4505 122.693 93.5563 121.119C94.3088 120.856 94.6795 120.928 95.0502 120.999Z" fill="white"/>
<path d="M67.5479 131.034C67.9484 132.566 68.197 134.492 68.2637 136.707C67.8532 135.14 67.6246 133.284 67.5479 131.034Z" fill="white"/>
<path d="M68.156 141.194C68.6884 140.86 69.0802 140.935 69.7727 141.044C69.6027 142.839 69.132 144.599 68.3807 146.551C68.072 145.029 68.0437 143.317 68.156 141.194Z" fill="white"/>
<path d="M95.1443 120.645C94.6787 120.928 94.308 120.856 93.6538 120.773C93.3318 119.709 93.2932 118.656 93.4095 117.237C94.033 116.966 94.5016 117.06 95.2997 117.297C95.4992 118.39 95.3692 119.34 95.1443 120.645Z" fill="white"/>
<path d="M65.5977 118.953C66.0371 119.667 66.3503 120.693 66.5254 122.027C66.082 121.312 65.7767 120.289 65.5977 118.953Z" fill="white"/>
<path d="M81.8528 122.272C81.7413 121.414 81.8322 120.301 82.224 119.004C82.3683 119.885 82.2116 120.95 81.8528 122.272Z" fill="white"/>
<path d="M84.9506 107.724C84.8665 106.99 85.0229 106.018 85.4469 104.962C85.5401 105.747 85.3656 106.617 84.9506 107.724Z" fill="white"/>
<path d="M83.0929 116.754C82.8741 116.315 82.848 115.642 83.0294 114.87C83.2531 115.354 83.2693 115.937 83.0929 116.754Z" fill="white"/>
<path d="M88.0756 97.7806C87.9466 97.2944 88.0466 96.6083 88.392 95.8865C88.5265 96.4274 88.4155 97.004 88.0756 97.7806Z" fill="white"/>
<path d="M76.7963 86.3506C77.261 90.6163 77.691 95.2297 77.7079 99.8447C77.7414 108.984 77.5471 118.124 77.2621 127.625C76.8116 125.046 76.3201 122.104 76.3194 119.163C76.3166 108.342 76.4766 97.5203 76.7963 86.3506Z" fill="white"/>
</svg>
